<svg width="200" height="200" viewBox="0 0 200 200" fill="none" xmlns="http://www.w3.org/2000/svg">
<circle cx="100" cy="100" r="100" fill="#C7D2BD"/>
<path d="M87.188 159.301H125.688L127.188 154.301L124.188 149.301L117.188 146.801H104.188L112.188 138.801L114.188 130.301L125.688 127.301L129.188 133.801H144.188L145.688 135.801H153.688L151.188 130.301H157.688L155.688 121.301L147.688 118.801L144.188 115.301L141.688 106.301L153.688 103.801L157.688 99.3008V93.3008L144.188 79.8008L139.188 78.3008L138.188 73.3008L131.188 71.3008L127.188 75.3008L125.688 79.8008L121.688 82.8008L114.188 91.3008L107.188 93.3008H94.188L81.688 96.3008L72.188 103.801L64.688 113.301L61.188 127.301L57.188 123.301L54.188 113.301L56.188 103.801L61.188 96.3008L72.188 91.3008L84.188 87.3008L97.688 83.8008L110.688 76.8008L120.688 66.3008L127.188 53.8008L129.188 39.8008H101.688L84.188 41.8008L66.688 48.8008L51.688 62.3008L41.188 78.3008L37.688 99.3008L41.188 119.801L51.688 138.801L69.688 152.301L87.188 159.301Z" fill="white"/>
<mask id="mask0_43_183" style="mask-type:luminance" maskUnits="userSpaceOnUse" x="36" y="38" width="124" height="124">
<path d="M159.56 161.217H36V37.9999H159.56V161.217Z" fill="white"/>
</mask>
<g mask="url(#mask0_43_183)">
<path d="M51.1352 133.006C38.6328 115.476 36.9725 92.4265 46.8317 73.2844C56.6904 54.1399 76.4177 42.1097 97.9513 42.1073H126.655C126.264 50.9906 123.158 59.5408 117.756 66.6069C111.971 74.2593 103.82 79.7881 94.5674 82.3317L70.7863 88.9369C62.334 91.285 55.7719 97.9577 53.563 106.448C51.3556 114.937 53.8357 123.961 60.073 130.131C60.2762 133.754 61.0169 137.325 62.2737 140.731C63.0945 142.96 64.1681 145.091 65.4706 147.077C59.9058 143.264 55.0525 138.501 51.1352 133.006ZM91.6565 157.109C87.1418 157.107 82.6977 155.985 78.724 153.839L78.6987 153.827C72.8815 150.678 68.4116 145.516 66.127 139.309C64.9249 136.049 64.2538 132.617 64.1401 129.144C64.1269 128.809 64.1199 128.471 64.1199 128.061C64.1187 119.426 67.5467 111.144 73.6528 105.036C79.7591 98.9302 88.0402 95.501 96.6756 95.501H105.378C111.657 95.5227 117.501 92.301 120.839 86.9845C120.858 86.958 120.877 86.929 120.894 86.9025C121.897 85.2952 123.167 83.8738 124.648 82.6961V83.1788H128.756V77.0177C128.756 74.7492 130.594 72.9103 132.863 72.9103C135.132 72.9103 136.97 74.7492 136.97 77.0177V83.1788H141.077V80.2829C141.238 80.348 141.398 80.4156 141.557 80.488C143.612 81.4171 145.443 82.7758 146.924 84.4747L153.745 92.2672C155.528 94.3064 155.953 97.1975 154.834 99.6639C153.715 102.13 151.257 103.713 148.55 103.716H136.97C135.837 103.716 134.917 104.635 134.917 105.769V124.253C134.917 125.385 135.837 126.306 136.97 126.306H141.077C145.955 126.314 150.158 129.743 151.139 134.521H146.453L144.968 131.548C144.621 130.853 143.909 130.414 143.131 130.414H130.284L124.561 111.339L120.628 112.522L124.568 125.657C122.037 127.108 119.226 127.996 116.322 128.266C115.209 117.819 106.402 109.889 95.8976 109.877H87.6833V113.984H95.8976C104.966 113.994 112.316 121.345 112.327 130.414C112.327 135.928 109.21 140.969 104.276 143.436L101.14 145.004C100.288 145.432 99.8416 146.387 100.06 147.314C100.279 148.241 101.107 148.895 102.058 148.895H118.488C121.889 148.899 124.644 151.655 124.648 155.056V157.109H91.6565ZM152.864 128.36C150.18 124.501 145.778 122.199 141.077 122.199H139.024V107.823H139.597L143.237 118.741C143.477 119.462 144.096 119.993 144.848 120.116L150.305 121.026C153.279 121.516 155.46 124.089 155.453 127.103V128.36H152.864ZM97.9513 37.9999C68.0441 38.0023 42.4566 59.478 37.272 88.9344C32.0868 118.388 48.8021 147.312 76.9109 157.527C81.4501 159.945 86.5133 161.212 91.6565 161.217H126.702C127.836 161.217 128.756 160.297 128.756 159.163V155.056C128.749 149.387 124.156 144.794 118.488 144.787H109.675C113.426 141.681 115.814 137.231 116.33 132.388C119.628 132.132 122.842 131.21 125.774 129.675L126.789 133.059C127.05 133.925 127.849 134.521 128.756 134.521H141.862L143.348 137.492C143.695 138.187 144.407 138.626 145.185 138.626H153.399C154.533 138.626 155.453 137.707 155.453 136.575C155.453 135.182 155.251 133.8 154.852 132.467H157.506C158.64 132.467 159.56 131.546 159.56 130.414V127.103C159.572 122.081 155.938 117.79 150.981 116.974L146.742 116.27L143.926 107.823H148.55C152.87 107.821 156.79 105.294 158.575 101.36C160.359 97.4268 159.68 92.815 156.837 89.5619L150.015 81.7694C147.614 79.0111 144.491 76.9743 140.997 75.8883C140.4 71.6192 136.6 68.5375 132.297 68.8343C127.995 69.1311 124.654 72.7052 124.648 77.0177V77.7441C121.729 79.4261 119.262 81.7936 117.464 84.6436C117.445 84.6702 117.426 84.6967 117.41 84.7257C114.828 88.8862 110.274 91.4105 105.378 91.3936H96.6756C78.0367 91.396 62.3644 105.378 60.2494 123.896C60.1102 123.688 59.9767 123.476 59.8472 123.261C56.5219 117.773 55.9579 111.05 58.3215 105.086C60.6853 99.1233 65.7056 94.6105 71.8853 92.8922L95.6664 86.2871C105.784 83.507 114.699 77.4617 121.027 69.0901C127.399 60.7547 130.837 50.5465 130.809 40.0536C130.809 38.9194 129.889 37.9999 128.756 37.9999H97.9513Z" fill="#231F20"/>
</g>
<path d="M142.455 90.7056C142.455 91.6565 141.682 92.4287 140.73 92.4287C139.778 92.4287 139.005 91.6565 139.005 90.7056C139.005 89.7524 139.778 88.9801 140.73 88.9801C141.682 88.9801 142.455 89.7524 142.455 90.7056Z" fill="#231F20"/>
<path d="M156.479 100.977C156.098 101.204 153.959 102.413 151.345 101.663C149.37 101.095 148.271 99.7392 147.922 99.2662" fill="#231F20"/>
</svg>
