<svg width="200" height="200" viewBox="0 0 200 200" fill="none" xmlns="http://www.w3.org/2000/svg">
<circle cx="100" cy="100" r="100" fill="#DBCDBD"/>
<path d="M43.4668 146.389H61.9922L60.4043 137.391V132.098H139.269V146.389H151.443L157.266 143.742V140.566L154.619 129.451L149.855 122.041L164.146 119.924L171.027 113.572L169.969 104.045L166.264 101.398H153.031L143.504 89.2246L132.389 74.9336L123.391 68.0527L101.689 61.7012L88.9863 63.8184L74.6953 70.6992L63.5801 79.168L46.1133 101.398L47.7012 110.926L33.9395 118.336L31.8223 122.041H47.7012V123.629L43.4668 129.451V135.803V146.389Z" fill="#F6F4F4"/>
<mask id="mask0_42_182" style="mask-type:luminance" maskUnits="userSpaceOnUse" x="26" y="60" width="148" height="89">
<path d="M173.144 148.401H26V60.1147H173.144V148.401Z" fill="white"/>
</mask>
<g mask="url(#mask0_42_182)">
<path d="M38.0705 118.972L47.9251 113.595C49.2242 115.639 50.8508 117.455 52.7361 118.972H50.5232H38.0705ZM45.6203 133.687C45.626 128.272 50.0145 123.884 55.4289 123.878H65.6055L60.6422 127.847C58.8949 129.241 57.8775 131.356 57.8804 133.592V138.593C57.8804 138.854 57.9235 139.116 58.0068 139.369L59.3834 143.496H45.6203V133.687ZM141.264 133.592C141.267 131.356 140.25 129.238 138.502 127.847L133.539 123.878H143.716C149.13 123.884 153.519 128.272 153.524 133.687V138.593C153.524 138.854 153.567 139.116 153.651 139.369L155.027 143.496H141.264V133.592ZM167.144 113.23C165.394 116.76 161.79 118.987 157.85 118.972H145.489C147.935 116.984 149.926 114.498 151.331 111.676L155.042 104.258H168.239V108.583C168.239 110.196 167.862 111.785 167.144 113.23ZM114.287 67.5409C121.331 70.0441 127.619 74.309 132.545 79.9303L125.785 90.992L114.287 83.3273V67.5409ZM89.7636 66.1183C96.2213 64.6526 102.923 64.6526 109.381 66.1183V83.4595L99.5723 91.3082L89.7636 83.4595V66.1183ZM66.1831 80.4074C71.1694 74.5532 77.6098 70.1159 84.8578 67.5409V83.3273L73.2759 91.0466L66.1831 80.4074ZM66.574 118.972C59.4237 118.949 53.0321 114.518 50.5002 107.833L48.408 102.261L51.9572 97.8952L55.4289 104.839C57.4924 109 61.7458 111.632 66.3958 111.615H70.1434V118.972H66.574ZM79.952 128.781H67.3241L73.457 123.878H79.952V128.781ZM97.1208 128.781H84.8578V123.878H97.1208V128.781ZM116.738 128.781H102.024V123.878H116.738V128.781ZM131.82 128.781H121.644V123.878H125.688L131.82 128.781ZM102.024 118.972V111.615H124.095V118.972H102.024ZM75.0492 111.615H97.1208V118.972H75.0492V111.615ZM70.1434 95.1908V106.709H66.3958C63.6081 106.721 61.0561 105.143 59.8174 102.643L55.3513 93.7165L62.9356 84.3791L70.1434 95.1908ZM97.1208 95.6277V106.709H75.0492V95.7599L87.1771 87.6727L97.1208 95.6277ZM124.095 95.7599V106.709H102.024V95.6277L111.967 87.6727L124.095 95.7599ZM135.847 83.9366L143.414 93.2481L137.16 103.252C135.821 105.408 133.462 106.718 130.921 106.709H129.001V95.1391L135.847 83.9366ZM150.625 102.123L146.946 109.483C144.055 115.314 138.1 118.995 131.591 118.972H129.001V111.615H130.921C135.154 111.627 139.089 109.448 141.322 105.85L146.681 97.2715L150.625 102.123ZM27.2761 119.271C26.2932 119.809 25.7989 120.944 26.0776 122.03C26.3535 123.117 27.3307 123.878 28.4515 123.878H44.4736C42.0508 126.571 40.7116 130.063 40.7145 133.687V145.95C40.7145 147.304 41.8123 148.401 43.1659 148.401H62.7862C63.5736 148.401 64.3151 148.022 64.7749 147.384C65.2376 146.743 65.3641 145.921 65.1112 145.174L62.7862 138.193V133.687H136.358V145.95C136.358 146.599 136.617 147.223 137.077 147.683C137.537 148.143 138.16 148.401 138.81 148.401H158.43C159.218 148.401 159.959 148.022 160.419 147.384C160.881 146.743 161.005 145.921 160.755 145.174L158.43 138.193V133.687C158.433 130.063 157.094 126.571 154.671 123.878H157.85C163.649 123.895 168.954 120.619 171.529 115.423C172.59 113.299 173.142 110.957 173.145 108.583V101.807C173.145 100.453 172.047 99.3522 170.693 99.3522H154.691L137.465 78.1514C128.194 66.7419 114.275 60.1147 99.5723 60.1147C84.8693 60.1147 70.951 66.7419 61.6797 78.1514L50.549 91.8485V91.8513L43.7149 100.258C43.1659 100.936 43.0165 101.853 43.324 102.666L45.7668 109.187L27.2761 119.271Z" fill="#231F20"/>
</g>
<path d="M162.925 111.207C162.925 112.336 161.919 113.25 160.678 113.25C159.436 113.25 158.43 112.336 158.43 111.207C158.43 110.077 159.436 109.163 160.678 109.163C161.919 109.163 162.925 110.077 162.925 111.207Z" fill="#231F20"/>
<path d="M127.426 59.9473L136.293 49.6925" stroke="#231F20" stroke-width="3" stroke-linecap="round"/>
<path d="M75.5771 59.7822L66.7102 49.5275" stroke="#231F20" stroke-width="3" stroke-linecap="round"/>
<path d="M101.399 53.5559L101.436 39.9993" stroke="#231F20" stroke-width="3" stroke-linecap="round"/>
</svg>
